#!OML:ASF F:\VICON\USERDATA\INSTALL\rory3\rory3.ASF
:FULLY-SPECIFIED
:DEGREES
398
root 0.0208601 17.9308 -0.908309 1.206 -8.43986 2.95465
lowerback -1.47568 -2.14315 -4.20166
upperback -0.0186404 -2.8097 2.27015
thorax 1.12512 -1.43681 4.62392
lowerneck -17.3613 0.857561 -10.0603
upperneck 23.4227 3.1879 3.49304
head 10.1373 0.977798 3.35165
rclavicle 9.98893e-015 7.15625e-015
rhumerus -37.5981 -13.6545 -71.8539
rradius 36.6539
rwrist 17.0579
rhand -28.1533 12.249
rfingers 7.12502
rthumb -1.53393 -17.7252
lclavicle 9.98893e-015 7.15625e-015
lhumerus 8.18011 -23.8572 74.1608
lradius 113.624
lwrist -1.30331
lhand -22.5836 26.8457
lfingers 7.12502
lthumb 3.84518 56.7907
rfemur -8.12288 6.98797 13.0037
rtibia 27.31
rfoot -17.5171 -2.76838
rtoes 3.76434
lfemur 0.602145 -1.87926 -23.5907
ltibia 12.861
lfoot -10.6005 3.90739
ltoes -11.6411
399
root 0.0225828 17.9299 -0.909732 1.19212 -8.44736 2.93604
lowerback -1.41837 -2.12134 -4.1573
upperback -0.00373924 -2.78307 2.25092
thorax 1.10222 -1.42286 4.58168
lowerneck -17.4886 0.843968 -9.88995
upperneck 23.3978 3.14106 3.4669
head 10.1586 0.969271 3.31003
rclavicle 1.2921e-015 7.95139e-016
rhumerus -37.5742 -13.9089 -71.7417
rradius 36.3729
rwrist 17.0096
rhand -28.1985 12.0158
rfingers 7.12502
rthumb -1.57759 -17.9581
lclavicle 1.2921e-015 7.95139e-016
lhumerus 8.60077 -23.8459 73.9403
lradius 113.6
lwrist -1.24192
lhand -22.6852 26.85
lfingers 7.12502
lthumb 3.7471 56.7968
rfemur -8.13805 7.03674 13.0264
rtibia 27.3496
rfoot -17.5398 -2.79855
rtoes 3.67166
lfemur 0.626314 -1.85387 -23.5724
ltibia 12.8416
lfoot -10.5959 3.89375
ltoes -11.5325
400
root 0.0245426 17.929 -0.909187 1.19855 -8.46553 2.96536
lowerback -1.38209 -2.13634 -4.17602
upperback -0.0436637 -2.80431 2.25575
thorax 1.04425 -1.43136 4.5989
lowerneck -17.6066 0.882756 -9.75003
upperneck 23.41 3.1792 3.42669
head 10.185 0.994091 3.28011
rclavicle -4.58944e-014 9.54166e-015
rhumerus -37.6064 -14.0357 -71.5906
rradius 36.1029
rwrist 17.0392
rhand -28.2162 11.8231
rfingers 7.12502
rthumb -1.59477 -18.1507
lclavicle -4.58944e-014 9.54166e-015
lhumerus 8.83027 -23.6957 73.8364
lradius 113.52
lwrist -1.37807
lhand -22.6682 26.8264
lfingers 7.12502
lthumb 3.76354 56.7729
rfemur -8.19092 7.0176 12.987
rtibia 27.4091
rfoot -17.5312 -2.80248
rtoes 3.30693
lfemur 0.64387 -1.8297 -23.6095
ltibia 12.7932
lfoot -10.6341 3.87497
ltoes -11.4917
401
root 0.0273974 17.927 -0.906802 1.19718 -8.52397 3.0521
lowerback -1.42053 -2.15712 -4.21816
upperback -0.0493332 -2.82989 2.24522
thorax 1.06435 -1.44472 4.60953
lowerneck -17.7203 0.960128 -9.66568
upperneck 23.3371 3.27331 3.43424
head 10.1734 1.04885 3.28108
rclavicle 2.14687e-014 -1.51076e-014
rhumerus -37.5668 -14.1307 -71.4379
rradius 35.8437
rwrist 17.0454
rhand -28.0959 11.7232
rfingers 7.12502
rthumb -1.47857 -18.2514
lclavicle 2.14687e-014 -1.51076e-014
lhumerus 9.02851 -23.4838 73.7471
lradius 113.413
lwrist -1.59153
lhand -22.756 26.7778
lfingers 7.12502
lthumb 3.67872 56.7258
rfemur -8.2327 7.00425 12.8694
rtibia 27.4627
rfoot -17.555 -2.70459
rtoes 3.55528
lfemur 0.647738 -1.80312 -23.7205
ltibia 12.7873
lfoot -10.6752 3.88054
ltoes -11.4848
402
root 0.029541 17.9245 -0.903728 1.14782 -8.59345 3.13776
lowerback -1.45222 -2.17699 -4.27089
upperback -0.00352764 -2.85423 2.24692
thorax 1.13474 -1.45996 4.63792
lowerneck -17.8227 1.01494 -9.71706
upperneck 23.1918 3.34803 3.53835
head 10.1306 1.09714 3.33404
rclavicle 2.77056e-014 -1.59028e-014
rhumerus -37.447 -14.1472 -71.3196
rradius 35.6069
rwrist 16.9795
rhand -27.9042 11.772
rfingers 7.12502
rthumb -1.29337 -18.2038
lclavicle 2.77056e-014 -1.59028e-014
lhumerus 9.35323 -23.255 73.6201
lradius 113.304
lwrist -1.83839
lhand -22.9544 26.6294
lfingers 7.12502
lthumb 3.48716 56.5807
rfemur -8.22455 7.04414 12.7638
rtibia 27.5242
rfoot -17.5685 -2.65183
rtoes 3.80719
lfemur 0.713966 -1.80402 -23.8351
ltibia 12.7618
lfoot -10.6188 3.96817
ltoes -11.5137
403
root 0.0318915 17.9233 -0.90213 1.08789 -8.62534 3.17892
lowerback -1.41805 -2.17145 -4.26715
upperback 0.0185562 -2.84795 2.23979
thorax 1.13707 -1.45729 4.62946
lowerneck -17.8127 1.00871 -9.74202
upperneck 23.0437 3.3267 3.60299
head 10.0745 1.09856 3.35385
rclavicle -5.65294e-014 1.27222e-014
rhumerus -37.4166 -14.2603 -71.159
rradius 35.4075
rwrist 16.9481
rhand -27.6716 12.0477
rfingers 7.12502
rthumb -1.06877 -17.9294
lclavicle -5.65294e-014 1.27222e-014
lhumerus 9.7334 -23.1161 73.4738
lradius 113.135
lwrist -2.11786
lhand -23.183 26.4252
lfingers 7.12502
lthumb 3.26638 56.38
rfemur -8.18565 7.05144 12.7137
rtibia 27.5644
rfoot -17.5657 -2.60534
rtoes 3.67951
lfemur 0.789367 -1.82349 -23.8939
ltibia 12.7553
lfoot -10.6186 4.02392
ltoes -11.4428
404
root 0.0350727 17.9233 -0.900152 1.09413 -8.66035 3.2319
lowerback -1.44985 -2.15405 -4.25299
upperback -0.00838531 -2.82369 2.22279
thorax 1.12284 -1.44402 4.60399
lowerneck -17.8071 0.971486 -9.63968
upperneck 22.9901 3.26673 3.51126
head 10.0629 1.07057 3.29498
rclavicle -6.41081e-015 1.03368e-014
rhumerus -37.456 -14.4056 -70.9795
rradius 35.2416
rwrist 17.0169
rhand -27.5826 12.0463
rfingers 7.12502
rthumb -0.982818 -17.9312
lclavicle -6.41081e-015 1.03368e-014
lhumerus 10.0315 -23.0099 73.302
lradius 112.959
lwrist -2.30274
lhand -23.5292 26.2652
lfingers 7.12502
lthumb 2.932 56.2248
rfemur -8.21711 7.01819 12.6331
rtibia 27.5882
rfoot -17.5544 -2.51232
rtoes 3.88631
lfemur 0.772956 -1.76125 -23.9629
ltibia 12.7889
lfoot -10.6417 3.98035
ltoes -11.2808
405
root 0.0383101 17.9221 -0.898855 1.10625 -8.70479 3.19987
lowerback -1.44915 -2.1231 -4.15772
upperback -0.0475093 -2.78408 2.21994
thorax 1.07295 -1.42155 4.54948
lowerneck -17.8421 0.960256 -9.45402
upperneck 22.9706 3.22777 3.40455
head 10.0707 1.05661 3.22156
rclavicle 1.92573e-014 -1.90833e-014
rhumerus -37.485 -14.5152 -70.8654
rradius 35.0716
rwrist 17.0517
rhand -27.6449 11.5587
rfingers 7.12502
rthumb -1.04295 -18.4185
lclavicle 1.92573e-014 -1.90833e-014
lhumerus 10.3278 -22.9013 73.1279
lradius 112.801
lwrist -2.42223
lhand -24.0466 26.1827
lfingers 7.12502
lthumb 2.43236 56.1486
rfemur -8.22359 7.00458 12.6497
rtibia 27.5731
rfoot -17.5512 -2.45818
rtoes 3.72483
lfemur 0.720451 -1.6748 -23.9336
ltibia 12.8815
lfoot -10.7111 3.92319
ltoes -11.2772
406
root 0.0409754 17.9214 -0.89911 1.10714 -8.75386 3.09791
lowerback -1.38899 -2.14087 -4.06988
upperback -0.0860163 -2.81264 2.32022
thorax 1.00356 -1.43342 4.60634
lowerneck -17.8976 0.999796 -9.51115
upperneck 22.9788 3.30444 3.41197
head 10.0775 1.08768 3.24476
rclavicle -7.70291e-015 7.95139e-015
rhumerus -37.4098 -14.3427 -70.7704
rradius 34.8884
rwrist 17.0176
rhand -27.8729 10.8609
rfingers 7.12502
rthumb -1.26314 -19.1151
lclavicle -7.70291e-015 7.95139e-015
lhumerus 10.6409 -22.5839 73.0478
lradius 112.671
lwrist -2.53401
lhand -24.1355 26.3359
lfingers 7.12502
lthumb 2.34649 56.3027
rfemur -8.22091 7.03924 12.7601
rtibia 27.5611
rfoot -17.539 -2.51533
rtoes 3.2712
lfemur 0.6973 -1.64959 -23.8283
ltibia 12.9338
lfoot -10.7505 3.96262
ltoes -11.3141
407
root 0.0437126 17.9221 -0.897511 1.08128 -8.78626 3.02615
lowerback -1.33952 -2.21228 -4.02179
upperback -0.0999065 -2.91188 2.44735
thorax 0.976802 -1.48262 4.71038
lowerneck -17.9775 1.06578 -9.72933
upperneck 22.9943 3.44786 3.49963
head 10.0819 1.14494 3.33229
rclavicle -2.26615e-014 -1.11319e-014
rhumerus -37.2507 -13.9992 -70.6981
rradius 34.7003
rwrist 16.9623
rhand -28.0954 10.1006
rfingers 7.12502
rthumb -1.47804 -19.874
lclavicle -2.26615e-014 -1.11319e-014
lhumerus 10.9225 -22.1346 72.9605
lradius 112.548
lwrist -2.64799
lhand -24.0701 26.4442
lfingers 7.12502
lthumb 2.40962 56.4104
rfemur -8.18252 7.08389 12.8385
rtibia 27.5506
rfoot -17.5242 -2.52651
rtoes 3.34035
lfemur 0.741253 -1.62648 -23.758
ltibia 12.9655
lfoot -10.7823 3.97129
ltoes -11.1826
